<svg width="595px" height="125px" viewBox="0 0 119 25" version="1.1" xmlns="http://www.w3.org/2000/svg" xmlns:xlink="http://www.w3.org/1999/xlink">
	    <g id="Page-1" stroke="none" stroke-width="1" fill="none" fill-rule="evenodd">
	        <path d="M34.40625,1.25 L38.484375,17.953125 L38.578125,17.953125 L42.703125,1.25 L48.5,1.25 L48.5,24 L44.078125,24 L44.078125,17.390625 L44.453125,8.546875 L44.359375,8.53125 L40.015625,24 L37.0625,24 L32.765625,8.65625 L32.671875,8.671875 L33.0625,17.390625 L33.0625,24 L28.640625,24 L28.640625,1.25 L34.40625,1.25 Z M67.046875,1.25 L67.046875,16.734375 C67.046875,19.1614705 66.3359446,21.0338476 64.9140625,22.3515625 C63.4921804,23.6692774 61.6302198,24.328125 59.328125,24.328125 C57.0260302,24.328125 55.1640696,23.6666733 53.7421875,22.34375 C52.3203054,21.0208267 51.609375,19.1510538 51.609375,16.734375 L51.609375,1.25 L56.046875,1.25 L56.046875,16.734375 C56.046875,18.1197986 56.3333305,19.1406217 56.90625,19.796875 C57.4791695,20.4531283 58.2864531,20.78125 59.328125,20.78125 C60.401047,20.78125 61.2187472,20.4687531 61.78125,19.84375 C62.3437528,19.2187469 62.625,18.1822989 62.625,16.734375 L62.625,1.25 L67.046875,1.25 Z M74.546875,20.453125 L83.28125,20.453125 L83.28125,24 L69.546875,24 L69.546875,21.765625 L78.078125,4.796875 L69.453125,4.796875 L69.453125,1.25 L83.140625,1.25 L83.140625,3.40625 L74.546875,20.453125 Z M101.015625,1.25 L101.015625,16.734375 C101.015625,19.1614705 100.304695,21.0338476 98.8828125,22.3515625 C97.4609304,23.6692774 95.5989698,24.328125 93.296875,24.328125 C90.9947802,24.328125 89.1328196,23.6666733 87.7109375,22.34375 C86.2890554,21.0208267 85.578125,19.1510538 85.578125,16.734375 L85.578125,1.25 L90.015625,1.25 L90.015625,16.734375 C90.015625,18.1197986 90.3020805,19.1406217 90.875,19.796875 C91.4479195,20.4531283 92.2552031,20.78125 93.296875,20.78125 C94.369797,20.78125 95.1874972,20.4687531 95.75,19.84375 C96.3125028,19.2187469 96.59375,18.1822989 96.59375,16.734375 L96.59375,1.25 L101.015625,1.25 Z M114.3125,18.0625 C114.3125,17.1770789 114.083336,16.4765651 113.625,15.9609375 C113.166664,15.4453099 112.359381,14.9375025 111.203125,14.4375 C108.83853,13.6145792 107.06511,12.6796927 105.882812,11.6328125 C104.700515,10.5859323 104.109375,9.11980109 104.109375,7.234375 C104.109375,5.36978234 104.796868,3.85156836 106.171875,2.6796875 C107.546882,1.50780664 109.302073,0.921875 111.4375,0.921875 C113.604177,0.921875 115.364577,1.5755143 116.71875,2.8828125 C118.072923,4.1901107 118.729167,5.83853172 118.6875,7.828125 L118.65625,7.921875 L114.34375,7.921875 C114.34375,6.88020313 114.083336,6.03646156 113.5625,5.390625 C113.041664,4.74478844 112.307296,4.421875 111.359375,4.421875 C110.473954,4.421875 109.783857,4.69010148 109.289062,5.2265625 C108.794268,5.76302352 108.546875,6.43749594 108.546875,7.25 C108.546875,8.00000375 108.822914,8.61718508 109.375,9.1015625 C109.927086,9.58593992 110.88541,10.124997 112.25,10.71875 C114.406261,11.4479203 116.02864,12.3723902 117.117188,13.4921875 C118.205735,14.6119848 118.75,16.1249905 118.75,18.03125 C118.75,20.0000098 118.093757,21.5416611 116.78125,22.65625 C115.468743,23.7708389 113.723969,24.328125 111.546875,24.328125 C109.380198,24.328125 107.502612,23.6953188 105.914062,22.4296875 C104.325513,21.1640562 103.557291,19.3489702 103.609375,16.984375 L103.640625,16.890625 L107.96875,16.890625 C107.96875,18.296882 108.265622,19.3072886 108.859375,19.921875 C109.453128,20.5364614 110.348952,20.84375 111.546875,20.84375 C112.48438,20.84375 113.179685,20.5937525 113.632812,20.09375 C114.08594,19.5937475 114.3125,18.9166709 114.3125,18.0625 Z" id="MUZUS-Copy" fill="#000000"></path>
	        <polygon id="Rectangle-Copy-2" fill="#000000" points="0 2 22 13 0 24"></polygon>
	    </g>
	</svg>